<svg id="Group_5" data-name="Group 5" xmlns="http://www.w3.org/2000/svg" width="469.567" height="355.193" viewBox="0 0 469.567 355.193">
  <path id="Path_2" data-name="Path 2" d="M207.6,690.6H82.209s-2.542-37.28,12.5-37.7,13.344,16.522,32.2-6.778,41.728-22.029,44.693-8.261-5.719,24.782,10.167,21.393S220.524,664.758,207.6,690.6Z" transform="translate(-68.43 -366.746)" fill="#ffbd41"/>
  <path id="Path_3" data-name="Path 3" d="M210.843,690.361l-.423-.017c.987-24.545,6.127-40.315,10.266-49.222,4.493-9.672,8.823-13.587,8.867-13.625l.282.317c-.043.038-4.322,3.914-8.78,13.521C216.939,650.2,211.826,665.909,210.843,690.361Z" transform="translate(-136.483 -366.499)" fill="#f2f2f2"/>
  <path id="Path_4" data-name="Path 4" d="M307.447,730.2l-.407-.118a65.715,65.715,0,0,1,16.545-27.526l.285.314A65.269,65.269,0,0,0,307.447,730.2Z" transform="translate(-198.366 -406.292)" fill="#f2f2f2"/>
  <path id="Path_5" data-name="Path 5" d="M111.88,719.71l-.42-.058a46.138,46.138,0,0,0-4.15-26.968,37.133,37.133,0,0,0-6.55-9.557l.293-.306a37.6,37.6,0,0,1,6.636,9.675A46.561,46.561,0,0,1,111.88,719.71Z" transform="translate(-78.351 -395.828)" fill="#f2f2f2"/>
  <path id="Path_6" data-name="Path 6" d="M209.26,673.836H53.321l-.036-.528c-.09-1.314-2.079-32.31,7.964-43.37a11,11,0,0,1,8.038-3.857c6.547-.186,10.661,2.266,13.979,4.234,6.254,3.71,10.386,6.162,25.409-12.406,16.274-20.115,33.833-24.442,43.928-22.036,6.522,1.555,11.017,5.95,12.333,12.058,1.246,5.784.849,11.218.53,15.585-.341,4.672-.611,8.363,1.308,10.035,1.6,1.4,4.8,1.522,10.062.4,10.7-2.283,25.639-.33,33.136,9.356,4.033,5.211,7.21,14.683-.556,30.216ZM54.386,672.7H208.558c5.787-11.742,5.968-21.661.518-28.7-6.877-8.885-21.3-11.224-32-8.942-5.717,1.22-9.124,1.019-11.043-.653-2.346-2.044-2.058-5.984-1.694-10.972.314-4.295.7-9.639-.507-15.264-1.22-5.664-5.407-9.744-11.488-11.194-9.772-2.332-26.841,1.941-42.784,21.646-15.638,19.329-20.349,16.535-26.868,12.668-3.359-1.992-7.173-4.252-13.369-4.076a9.908,9.908,0,0,0-7.231,3.486C53.062,640.64,54.165,668.513,54.386,672.7Z" transform="translate(-53.068 -349.416)" fill="#cfcce0"/>
  <path id="Path_7" data-name="Path 7" d="M958.6,690.6H833.209s-2.542-37.28,12.5-37.7,13.344,16.522,32.2-6.778,41.728-22.029,44.693-8.261-5.719,24.782,10.167,21.393S971.524,664.758,958.6,690.6Z" transform="translate(-510.967 -366.746)" fill="#ffbd41"/>
  <path id="Path_8" data-name="Path 8" d="M961.843,690.361l-.423-.017c.987-24.545,6.128-40.315,10.266-49.222,4.493-9.672,8.823-13.587,8.867-13.625l.281.317c-.043.038-4.322,3.914-8.78,13.521C967.939,650.2,962.826,665.909,961.843,690.361Z" transform="translate(-579.021 -366.499)" fill="#f2f2f2"/>
  <path id="Path_9" data-name="Path 9" d="M1058.448,730.2l-.407-.118a65.714,65.714,0,0,1,16.545-27.526l.285.314A65.269,65.269,0,0,0,1058.448,730.2Z" transform="translate(-630.242 -406.292)" fill="#f2f2f2"/>
  <path id="Path_10" data-name="Path 10" d="M862.88,719.71l-.42-.058a46.138,46.138,0,0,0-4.15-26.968,37.132,37.132,0,0,0-6.55-9.557l.293-.306a37.6,37.6,0,0,1,6.636,9.675A46.561,46.561,0,0,1,862.88,719.71Z" transform="translate(-509.652 -395.828)" fill="#f2f2f2"/>
  <path id="Path_11" data-name="Path 11" d="M960.26,673.836H804.321l-.036-.528c-.09-1.314-2.079-32.31,7.964-43.37a11,11,0,0,1,8.038-3.857c6.547-.186,10.661,2.266,13.979,4.234,6.254,3.71,10.386,6.162,25.409-12.406,16.274-20.115,33.833-24.442,43.928-22.036,6.522,1.555,11.017,5.95,12.333,12.058,1.246,5.784.849,11.218.53,15.585-.341,4.672-.611,8.363,1.308,10.035,1.6,1.4,4.8,1.522,10.062.4,10.7-2.283,25.639-.33,33.136,9.356,4.033,5.211,7.21,14.683-.556,30.216ZM805.386,672.7H959.558c5.787-11.741,5.968-21.661.518-28.7-6.877-8.885-21.3-11.224-32-8.942-5.717,1.22-9.124,1.019-11.043-.653-2.346-2.044-2.058-5.984-1.694-10.972.314-4.294.7-9.639-.507-15.264-1.22-5.664-5.407-9.744-11.488-11.194-9.772-2.332-26.841,1.941-42.784,21.646-15.638,19.329-20.349,16.535-26.868,12.668-3.359-1.992-7.173-4.252-13.369-4.076a9.908,9.908,0,0,0-7.231,3.486C804.062,640.64,805.165,668.513,805.386,672.7Z" transform="translate(-495.605 -349.416)" fill="#cfcce0"/>
  <path id="Path_12" data-name="Path 12" d="M533.2,535.965c-10.99,0-20.628,11.479-25.942,28.62-.376,1.2-.728,2.439-1.057,3.693a106.969,106.969,0,0,0-3.308,26.891c0,32.647,13.594,59.2,30.307,59.2s30.307-26.557,30.307-59.2S549.909,535.965,533.2,535.965Zm0,117.469c-16.192,0-29.367-26.139-29.367-58.265a106.36,106.36,0,0,1,3.35-27q.465-1.769,1-3.468c5.173-16.667,14.453-27.8,25.021-27.8,16.192,0,29.367,26.139,29.367,58.265S549.387,653.434,533.2,653.434Z" transform="translate(-312.233 -317.976)" fill="#3f3d56"/>
  <path id="Path_13" data-name="Path 13" d="M571.226,657.576c-5.8,0-10.337-15.036-10.337-34.231s4.54-34.231,10.337-34.231,10.337,15.036,10.337,34.231S577.023,657.576,571.226,657.576Zm0-67.522c-5.094,0-9.4,15.245-9.4,33.291s4.3,33.291,9.4,33.291,9.4-15.245,9.4-33.291S576.32,590.054,571.226,590.054Z" transform="translate(-343.759 -346.151)" fill="#3f3d56"/>
  <ellipse id="Ellipse_1" data-name="Ellipse 1" cx="3.994" cy="7.862" rx="3.994" ry="7.862" transform="translate(224.527 269.331)" fill="#e0dbcc"/>
  <path id="Path_14" data-name="Path 14" d="M513.821,362.661l64.373-.235v25.361l-64.373,2.6Z" transform="translate(-296.238 -192.13)" fill="#3f3d56"/>
  <path id="Path_15" data-name="Path 15" d="M395.761,487.638l-.938-.051,2.844-51.661h58.24v.94h-57.35Z" transform="translate(-227.498 -231.094)" fill="#3f3d56"/>
  <path id="Path_16" data-name="Path 16" d="M359.505,716.506l-32.891-5.639.2-.92,32.891,5.639Z" transform="translate(-187.32 -376.359)" fill="#3f3d56"/>
  <rect id="Rectangle_13" data-name="Rectangle 13" width="0.94" height="40.075" transform="matrix(0.082, -0.997, 0.997, 0.082, 174.914, 351.904)" fill="#3f3d56"/>
  <path id="Path_17" data-name="Path 17" d="M545.44,613.8q-.529,1.7-1,3.468l-.982.108-30.561,3.4-70.012-7.048,72.831-3.759,28.8,3.717Z" transform="translate(-279.494 -357.205)" fill="#3f3d56"/>
  <path id="Path_18" data-name="Path 18" d="M589.343,257.45s-10.177-3.635-16.719,10.9-16.719,30.53-16.719,30.53l5.815,1.454s1.454-10.177,5.088-11.631l-1.454,13.084s43.615,15.265,63.241-1.454l-.727-5.088s2.908.727,2.908,5.088l2.181-2.181s-2.181-4.361-8.723-10.177c-4.294-3.817-5.77-11.078-6.277-15.619a18.9,18.9,0,0,0-4.351-10.293C609.259,257.03,601.337,251.675,589.343,257.45Z" transform="translate(-343.651 -169.002)" fill="#2f2e41"/>
  <path id="Path_19" data-name="Path 19" d="M499.5,214.6l-4.229-44.169s-8.458-23.964,4.229-22.084,5.169,20.2,5.169,20.2l7.048,46.048Z" transform="translate(-304.563 -112.435)" fill="#ffb9b9"/>
  <path id="Path_20" data-name="Path 20" d="M379.02,644.426l-4.7,15.976,8.928,7.518,6.578-20.2Z" transform="translate(-214.108 -341.624)" fill="#ffb9b9"/>
  <path id="Path_21" data-name="Path 21" d="M509.088,741.465l-4.7,16.916,16.446,10.337s.47-19.265,2.819-23.024Z" transform="translate(-311.362 -426.916)" fill="#ffb9b9"/>
  <path id="Path_22" data-name="Path 22" d="M491.124,544.693l-2.349,4.7s-26.783-12.217-33.831,4.7-22.554,70.482-22.554,70.482l13.626,5.639,24.9-56.855,56.855-1.41,2.349-31.482Z" transform="translate(-273.173 -320.361)" fill="#2f2e41"/>
  <path id="Path_23" data-name="Path 23" d="M551.653,550.031s-38.53-7.988-41.349,11.277,1.41,55.915,1.88,56.855-1.88,18.325-1.88,18.325l16.916,2.349s10.807-51.217,6.108-64.373L565.12,572.5a21.836,21.836,0,0,0,20.571-20.325c.242-4.2-.81-8.016-4.435-10.13-11.277-6.578-31.952-6.578-31.952-6.578Z" transform="translate(-316.709 -317.711)" fill="#2f2e41"/>
  <path id="Path_24" data-name="Path 24" d="M404.835,744.237s-3.289-7.048-7.988-3.759-15.506,10.337-15.506,10.337-16.718,5.887-1.88,9.867c13.2,3.541,16.446,2.819,16.446,2.819s10.807,1.88,12.217.94,2.349-15.976,2.349-15.976S403.9,747.056,404.835,744.237Z" transform="translate(-236.858 -425.929)" fill="#2f2e41"/>
  <path id="Path_25" data-name="Path 25" d="M481.683,775.431s-4.7-6.578-7.988-3.759-15.036,10.807-15.036,10.807-19.735,5.639-2.349,10.807,36.651,4.229,37.12,2.349-.94-15.506-.94-15.506S482.623,779.66,481.683,775.431Z" transform="translate(-280.641 -442.557)" fill="#2f2e41"/>
  <circle id="Ellipse_2" data-name="Ellipse 2" cx="16.916" cy="16.916" r="16.916" transform="translate(234.238 101.224)" fill="#ffb9b9"/>
  <path id="Path_26" data-name="Path 26" d="M590.983,339.465s-.94,19.265-5.639,20.675-17.855,16.916-11.747,21.614,41.349,1.41,41.349,1.41l-3.289-24.434s-7.518-5.169-1.41-14.1Z" transform="translate(-351.162 -213.807)" fill="#ffb9b9"/>
  <path id="Path_27" data-name="Path 27" d="M576.636,385.2l-3.289-15.506-10.807-4.229-8.928,20.675s-10.1,66.958-7.283,67.9a12.707,12.707,0,0,0,4.934.7s15.036-4.7,19.735-2.349,29.132,4.229,29.132,4.229,16.916-8.928,15.976-16.916,0-52.626,0-52.626l-2.114-19.97-18.54,2.9Z" transform="translate(-337.472 -227.59)" fill="#e0dacc"/>
  <path id="Path_28" data-name="Path 28" d="M484.791,247l-.47-2.819-13.157-15.976-7.518-26.783-18.325,7.048L458.478,240.9l18.8,23.964Z" transform="translate(-255.661 -106.78)" fill="#e0dacc"/>
  <path id="Path_29" data-name="Path 29" d="M590.274,300.706s5.815-8,10.9-9.45,5.815-8.723,5.815-8.723,13.084,14.538,21.08,15.265.727-17.446.727-17.446l-14.538-3.635-13.811,1.454-10.9,7.269Z" transform="translate(-361.203 -180.544)" fill="#2f2e41"/>
  <path id="Path_30" data-name="Path 30" d="M601.339,464.147l-.455-19.281H557.158l-1.4,51.7-.94-.026,1.422-52.614h45.55l.015.454.47,19.735Z" transform="translate(-318.943 -235.335)" fill="#3f3d56"/>
  <path id="Path_31" data-name="Path 31" d="M650.761,390.461h-.94V354.6l15.168,4.4-.263.9-13.965-4.055Z" transform="translate(-371.672 -187.979)" fill="#3f3d56"/>
  <path id="Path_32" data-name="Path 32" d="M680.2,556.965c-10.99,0-20.628,11.479-25.942,28.62-.376,1.2-.728,2.439-1.057,3.693a106.965,106.965,0,0,0-3.308,26.891c0,32.647,13.594,59.2,30.307,59.2s30.307-26.558,30.307-59.2S696.909,556.965,680.2,556.965Zm0,117.47c-16.192,0-29.367-26.139-29.367-58.265a106.36,106.36,0,0,1,3.35-27q.465-1.769,1-3.468c5.173-16.667,14.453-27.8,25.021-27.8,16.192,0,29.367,26.139,29.367,58.265S696.387,674.434,680.2,674.434Z" transform="translate(-396.928 -329.108)" fill="#3f3d56"/>
  <path id="Path_33" data-name="Path 33" d="M718.227,678.576c-5.8,0-10.337-15.036-10.337-34.231s4.541-34.231,10.337-34.231,10.337,15.036,10.337,34.231S724.023,678.576,718.227,678.576Zm0-67.522c-5.094,0-9.4,15.245-9.4,33.291s4.3,33.291,9.4,33.291,9.4-15.245,9.4-33.291S723.32,611.054,718.227,611.054Z" transform="translate(-427.906 -357.284)" fill="#3f3d56"/>
  <ellipse id="Ellipse_3" data-name="Ellipse 3" cx="3.994" cy="7.862" rx="3.994" ry="7.862" transform="translate(287.536 279.199)" fill="#e0dbcc"/>
  <path id="Path_34" data-name="Path 34" d="M665.821,352.926l9.867,3.759-1.88,5.169-7.988-3.289Z" transform="translate(-380.531 -187.094)" fill="#3f3d56"/>
  <path id="Path_35" data-name="Path 35" d="M582.821,438.926v7.518h28v-7.019Z" transform="translate(-333.995 -232.684)" fill="#3f3d56"/>
  <path id="Path_36" data-name="Path 36" d="M429.821,430.926v7.518h28v-7.019Z" transform="translate(-246.316 -228.443)" fill="#3f3d56"/>
  <path id="Path_37" data-name="Path 37" d="M470.45,115.415H278.917V72.038H470.45Zm-190.407-1.127H469.324V73.165H280.043Z" transform="translate(-187.413 -72.038)" fill="#3f3d56"/>
  <rect id="Rectangle_14" data-name="Rectangle 14" width="21.407" height="21.407" transform="translate(110.391 14.647)" fill="#ffbd41"/>
  <path id="Path_38" data-name="Path 38" d="M325.428,117.351H302.895V94.817h22.533Zm-21.407-1.127H324.3V95.944h-20.28Z" transform="translate(-196.116 -84.114)" fill="#3f3d56"/>
  <rect id="Rectangle_15" data-name="Rectangle 15" width="100.274" height="1.127" transform="translate(156.579 15.21)" fill="#3f3d56"/>
  <rect id="Rectangle_16" data-name="Rectangle 16" width="100.274" height="1.127" transform="translate(156.579 23.097)" fill="#3f3d56"/>
  <rect id="Rectangle_17" data-name="Rectangle 17" width="100.274" height="1.127" transform="translate(156.579 30.983)" fill="#3f3d56"/>
  <path id="Path_39" data-name="Path 39" d="M568.5,453h-.228V446.74a3.621,3.621,0,0,0-3.621-3.621H551.4a3.621,3.621,0,0,0-3.621,3.621v34.326a3.621,3.621,0,0,0,3.621,3.621h13.256a3.621,3.621,0,0,0,3.621-3.621V457.451h.228Z" transform="translate(-336.256 -268.756)" fill="#3f3d56"/>
  <circle id="Ellipse_4" data-name="Ellipse 4" cx="2.218" cy="2.218" r="2.218" transform="translate(219.626 182.807)" fill="#d0cde1"/>
  <path id="Path_40" data-name="Path 40" d="M614.864,496.242l-44.363-.834s-24.772,5.671-21.458-6.719,20.662-2.831,20.662-2.831l46.551-1.752Z" transform="translate(-339.004 -289.547)" fill="#ffb9b9"/>
  <path id="Path_41" data-name="Path 41" d="M654.443,371.693l4.229-3.289s7.048-3.759,8.458,9.4,11.747,56.855,1.41,57.325-36.651.94-36.651.94l2.819-14.566,21.614-1.41Z" transform="translate(-385.464 -228.885)" fill="#e0dacc"/>
  <path id="Path_42" data-name="Path 42" d="M604.905,346.926l-1.41,26.783-20.675,4.229,18.8-7.518Z" transform="translate(-333.694 -183.913)" opacity="0.15"/>
</svg>
