<svg xmlns="http://www.w3.org/2000/svg" width="256.741" height="281.558" viewBox="0 0 256.741 281.558">
  <g id="Group_19" data-name="Group 19" transform="translate(-26.021 0.042)">
    <path id="Path_78" data-name="Path 78" d="M569.2,578.437H364.5l.092-21.7c.234-54.915,44.066-100.165,98.974-101.1q.89-.015,1.783-.015h0a103.544,103.544,0,0,1,36.192,6.5c38.852,14.469,64.929,51.23,66.664,92.652Z" transform="translate(-289.388 -312.502)" fill="#ffbd41"/>
    <path id="Path_79" data-name="Path 79" d="M398.287,378.831l9.019,6.56,9.02,77.076h21.319l-7.38-87.736-29.518-11.479Z" transform="translate(-224.294 -209.965)" fill="#2f2e41"/>
    <path id="Path_80" data-name="Path 80" d="M509.044,433.642s-2.46,27.879,7.38,28.7,47.557-8.2,47.557-8.2L582.02,518.1l27.059-13.939S592.68,432,582.84,427.9,540.2,415.6,540.2,415.6l-23.779,4.1Z" transform="translate(-372.769 -289.374)" fill="#2f2e41"/>
    <path id="Path_81" data-name="Path 81" d="M645.51,710.906s-4.92,18.859-1.64,20.5a59.319,59.319,0,0,1,5.74,3.28v-3.28s4.1,4.1,4.1,7.38,22.139,4.1,22.139,0-.82-9.02-4.92-11.479-9.02-16.4-9.02-16.4Z" transform="translate(-450.198 -460.044)" fill="#2f2e41"/>
    <path id="Path_82" data-name="Path 82" d="M505.14,504.685l1.64,15.579,5.74,9.839,13.939-15.579L515.8,497.3Z" transform="translate(-286.049 -287.441)" fill="#2f2e41"/>
    <path id="Path_83" data-name="Path 83" d="M718.759,655.377s3.019-10.324,6.02-9.262,14.479,11.721,14.479,11.721l8.2,4.92s16.4,1.64,11.479,6.56-22.959,11.479-31.158,8.2-9.839-4.1-9.839-4.1l-2.46,1.64-9.839-2.46,1.64-17.219S709.74,662.757,718.759,655.377Z" transform="translate(-486.549 -422.554)" fill="#2f2e41"/>
    <circle id="Ellipse_14" data-name="Ellipse 14" cx="18.859" cy="18.859" r="18.859" transform="translate(145.294 4.055)" fill="#9f616a"/>
    <path id="Path_84" data-name="Path 84" d="M540.421,189.708s1.64,17.219-3.28,17.219.82,21.319,13.939,21.319,18.039-25.419,18.039-25.419-9.02-3.28-7.38-13.939S540.421,189.708,540.421,189.708Z" transform="translate(-388.157 -155.724)" fill="#9f616a"/>
    <path id="Path_85" data-name="Path 85" d="M505.976,226.589l-6.893,2.953-18.707,7.915a3.8,3.8,0,0,0-2.295,3.923l7.063,62.779s-7.38,15.579,4.1,16.4l1.64,5.74L504,310.718l49.2-1.64.82-79.536-22.51-8.9S528.448,237.575,505.976,226.589Z" transform="translate(-355.018 -176.7)" fill="#3f3d56"/>
    <path id="Path_86" data-name="Path 86" d="M470.181,264.691l-3.03-.866A2.5,2.5,0,0,0,464,265.834l-8.041,50.438a17.516,17.516,0,0,0,1.711,10.938c2.484,4.7,7.644,8.97,18.253,3.9l7.38-53.3Z" transform="translate(-342.106 -201.599)" fill="#3f3d56"/>
    <path id="Path_87" data-name="Path 87" d="M635.7,238.809l9.839,1.64L672.6,278.167l2.46,6.56,15.579-4.92s-.82,7.38,7.38,6.56c0,0-9.839,27.059-30.338,18.859s-27.059-32.8-27.059-32.8Z" transform="translate(-446.128 -187.197)" fill="#3f3d56"/>
    <path id="Path_88" data-name="Path 88" d="M409.626,140.992l-36.9-14.76-1.64,4.92,17.219,14.759Z" transform="translate(-208.574 -72.98)" fill="#ccc"/>
    <path id="Path_89" data-name="Path 89" d="M532.752,140.578c.7-.186.8-1.111.822-1.831.125-3.859,2.448-7.818,6.142-8.941a10.326,10.326,0,0,1,4.353-.24,16.487,16.487,0,0,1,5.895,1.967,9.2,9.2,0,0,0,3,1.357c.721.109,3.841,1.016,4.558,1.144,1.578.281,3.044,1.692,4.558,1.167,1.448-.5,1.769-2.378,1.8-3.91.08-3.492-2.571-8.324-4.906-10.922-1.772-1.971-4.44-2.881-7.047-3.354a46.918,46.918,0,0,0-9.217-.561c-4.173.074-8.463.4-12.226,2.2s-6.924,5.4-7.1,9.57c-.038.869.052,1.741-.021,2.607-.178,2.114-1.3,4.023-1.827,6.078a11.121,11.121,0,0,0,1.553,8.887c1.4,2.055,6.982,3.921,6.9,6.405,1.01-1.046-1.371-2.1-.362-3.144a2.487,2.487,0,0,0,.74-3.038l-1.072-4.181a3.772,3.772,0,0,1-.093-2.327C530.348,136.673,531.59,140.888,532.752,140.578Z" transform="translate(-379.953 -116.462)" fill="#2f2e41"/>
    <path id="Path_90" data-name="Path 90" d="M349.754,118.8l-15.579,60.677L394.852,200.8l35.258-29.519,22.139-66.416L416.17,131.1Z" transform="translate(-187.241 -60.629)" fill="#f2f2f2"/>
    <rect id="Rectangle_33" data-name="Rectangle 33" width="0.82" height="61.058" transform="matrix(0.255, -0.967, 0.967, 0.255, 165.278, 65.538)" fill="#e6e6e6"/>
    <rect id="Rectangle_34" data-name="Rectangle 34" width="0.82" height="61.058" transform="matrix(0.255, -0.967, 0.967, 0.255, 163.638, 69.638)" fill="#e6e6e6"/>
    <rect id="Rectangle_35" data-name="Rectangle 35" width="0.82" height="61.058" transform="matrix(0.255, -0.967, 0.967, 0.255, 162.818, 73.737)" fill="#e6e6e6"/>
    <rect id="Rectangle_36" data-name="Rectangle 36" width="0.82" height="61.058" transform="matrix(0.255, -0.967, 0.967, 0.255, 161.998, 77.837)" fill="#e6e6e6"/>
    <rect id="Rectangle_37" data-name="Rectangle 37" width="0.82" height="61.058" transform="matrix(0.255, -0.967, 0.967, 0.255, 161.178, 81.937)" fill="#e6e6e6"/>
    <rect id="Rectangle_38" data-name="Rectangle 38" width="0.82" height="61.058" transform="matrix(0.255, -0.967, 0.967, 0.255, 160.358, 86.037)" fill="#e6e6e6"/>
    <rect id="Rectangle_39" data-name="Rectangle 39" width="0.82" height="61.058" transform="matrix(0.255, -0.967, 0.967, 0.255, 159.538, 90.136)" fill="#e6e6e6"/>
    <rect id="Rectangle_40" data-name="Rectangle 40" width="0.82" height="61.058" transform="matrix(0.255, -0.967, 0.967, 0.255, 158.718, 94.236)" fill="#e6e6e6"/>
    <rect id="Rectangle_41" data-name="Rectangle 41" width="0.82" height="61.058" transform="matrix(0.255, -0.967, 0.967, 0.255, 157.898, 98.336)" fill="#e6e6e6"/>
    <path id="Path_91" data-name="Path 91" d="M512.351,351.641s18.441-11.015,26.641-3.635-23.779,18.039-23.779,18.039Z" transform="translate(-374.838 -248.835)" fill="#9f616a"/>
    <path id="Path_92" data-name="Path 92" d="M463.12,360.51l23.779-9.02s-4.1,15.579,4.1,16.4l-11.479,13.939S456.561,381.829,463.12,360.51Z" transform="translate(-345.704 -252.321)" fill="#3f3d56"/>
    <path id="Path_93" data-name="Path 93" d="M402.268,255.6l31.553,10.634-7.467,16.277L394.8,271.879Z" transform="translate(-222.279 -147.749)" fill="#e6e6e6"/>
    <path id="Path_94" data-name="Path 94" d="M534.862,149.128l23.779-18.039-6.56,22.139-24.6,18.039Z" transform="translate(-298.962 -75.787)" fill="#ccc"/>
    <rect id="Rectangle_42" data-name="Rectangle 42" width="29.847" height="0.82" transform="matrix(0.797, -0.604, 0.604, 0.797, 224.174, 103.352)" fill="#e6e6e6"/>
    <rect id="Rectangle_43" data-name="Rectangle 43" width="29.847" height="0.82" transform="matrix(0.797, -0.604, 0.604, 0.797, 222.534, 112.371)" fill="#e6e6e6"/>
    <path id="Path_95" data-name="Path 95" d="M769.618,328.733s20.5-12.3,7.38-17.219-13.119,13.939-13.119,13.939S763.059,329.553,769.618,328.733Z" transform="translate(-520.189 -228.743)" fill="#9f616a"/>
    <path id="Path_96" data-name="Path 96" d="M291.282,171.888l-.82,31.978,12.709-3.627-10.25.347Z" transform="translate(-161.977 -99.367)" opacity="0.1"/>
    <path id="Path_97" data-name="Path 97" d="M279.849,686.378c2.563,9.475,11.343,15.343,11.343,15.343s4.624-9.494,2.061-18.969-11.343-15.343-11.343-15.343S277.286,676.9,279.849,686.378Z" transform="translate(-240.017 -434.905)" fill="#8985a8"/>
    <path id="Path_98" data-name="Path 98" d="M265.762,697.365c7.033,6.847,7.893,17.372,7.893,17.372s-10.544-.576-17.578-7.422-7.893-17.372-7.893-17.372S258.729,690.519,265.762,697.365Z" transform="translate(-222.164 -447.928)" fill="#3f3d56"/>
    <rect id="Rectangle_44" data-name="Rectangle 44" width="12.662" height="12.662" transform="translate(270.1 160)" fill="#f2f2f2"/>
    <rect id="Rectangle_45" data-name="Rectangle 45" width="12.662" height="12.662" transform="translate(219.454 16.502)" fill="#f2f2f2"/>
    <circle id="Ellipse_15" data-name="Ellipse 15" cx="6.331" cy="6.331" r="6.331" transform="translate(66.671 132.145)" fill="#f2f2f2"/>
  </g>
</svg>
